<?xml version="1.0" encoding="iso-8859-1"?>
<!-- Generator: Adobe Illustrator 19.0.0, SVG Export Plug-In . SVG Version: 6.00 Build 0)  -->
<svg version="1.1" id="Layer_1" xmlns="http://www.w3.org/2000/svg" xmlns:xlink="http://www.w3.org/1999/xlink" x="0px" y="0px"
	 viewBox="0 0 512 512" style="enable-background:new 0 0 512 512;" xml:space="preserve">
<g>
	<g>
		<path d="M311.724,440.402c15.835-1.331,31.531-4.358,46.855-9.069l17.745-5.454l-22.158-72.083
			c67.342-30.259,103.166-106.648,80.913-179.04c-19.634-63.87-78.406-104.921-141.91-104.916
			c-8.474,0.001-17.036,0.755-25.599,2.261L245.406,0l-17.745,5.454C110.246,41.549,44.088,166.438,80.183,283.852
			c14.269,46.417,42.574,86.035,81.856,114.569c32.898,23.898,72.28,38.483,112.556,41.952v34.499H169.397V512h247.525v-37.129
			H311.724V440.402z M260.392,111.923c10.697-3.287,21.725-4.955,32.782-4.957h0.005v0.001c6.568,0,13.129,0.625,19.598,1.802
			l-36.92,11.349l34.571,28.215l11.205-37.582c11.937,3.186,23.377,8.323,33.681,15.235l-6.679,62.395l-23.66,7.272l10.91,35.49
			l23.658-7.274l14.547,47.319l20.194-6.208c-0.863,1.868-1.766,3.722-2.736,5.553c-13.928,26.29-37.259,45.584-65.699,54.327
			c-7.769,2.389-15.713,3.91-23.713,4.569l-1.743-87.379l-26.616,8.182l-19.782-32.764l9.113-54.592l-10.908-35.489l-36.912,11.346
			C227.578,126.689,242.838,117.319,260.392,111.923z M228.494,303l23.658-7.274l9.017,29.33
			c-12.02-3.618-23.468-9.224-33.667-16.642c-19.583-14.243-33.709-34.054-40.853-57.291c-5.395-17.554-6.217-35.443-3.152-52.38
			l11.347,36.912l23.66-7.272l19.782,32.762l-20.703,6.364L228.494,303z M293.237,404.057
			c-38.863-0.001-77.707-12.672-109.376-35.677c-32.724-23.77-56.303-56.772-68.189-95.438
			c-14.545-47.314-9.756-97.535,13.485-141.407c20.312-38.343,52.548-67.748,91.938-84.261l10.98,35.717
			c-67.342,30.26-103.167,106.65-80.913,179.042c19.634,63.869,78.406,104.915,141.908,104.915c8.475,0,17.037-0.754,25.602-2.26
			l10.984,35.73c-12.007,2.42-24.192,3.64-36.41,3.64C293.244,404.057,293.24,404.057,293.237,404.057z"/>
	</g>
</g>
<g>
</g>
<g>
</g>
<g>
</g>
<g>
</g>
<g>
</g>
<g>
</g>
<g>
</g>
<g>
</g>
<g>
</g>
<g>
</g>
<g>
</g>
<g>
</g>
<g>
</g>
<g>
</g>
<g>
</g>
</svg>
